<svg xmlns="http://www.w3.org/2000/svg" viewBox="0 0 1440 320"><path fill="#921c58" fill-opacity="1" d="M0,128L0,160L60,160L60,320L120,320L120,256L180,256L180,192L240,192L240,224L300,224L300,256L360,256L360,96L420,96L420,224L480,224L480,128L540,128L540,224L600,224L600,128L660,128L660,224L720,224L720,192L780,192L780,256L840,256L840,160L900,160L900,192L960,192L960,192L1020,192L1020,320L1080,320L1080,64L1140,64L1140,96L1200,96L1200,320L1260,320L1260,256L1320,256L1320,0L1380,0L1380,320L1440,320L1440,320L1380,320L1380,320L1320,320L1320,320L1260,320L1260,320L1200,320L1200,320L1140,320L1140,320L1080,320L1080,320L1020,320L1020,320L960,320L960,320L900,320L900,320L840,320L840,320L780,320L780,320L720,320L720,320L660,320L660,320L600,320L600,320L540,320L540,320L480,320L480,320L420,320L420,320L360,320L360,320L300,320L300,320L240,320L240,320L180,320L180,320L120,320L120,320L60,320L60,320L0,320L0,320Z"></path></svg>